<?xml version="1.0" standalone="no"?>
<!DOCTYPE svg PUBLIC "-//W3C//DTD SVG 20010904//EN"
 "http://www.w3.org/TR/2001/REC-SVG-20010904/DTD/svg10.dtd">
<svg version="1.0" xmlns="http://www.w3.org/2000/svg"
 width="520.000000pt" height="520.000000pt" viewBox="0 0 520.000000 520.000000"
 preserveAspectRatio="xMidYMid meet">
<metadata>
Created by potrace 1.11, written by Peter Selinger 2001-2013
</metadata>
<g transform="translate(0.000000,520.000000) scale(0.100000,-0.100000)"
fill="#000000" stroke="none">
<path d="M3470 2995 c-155 -44 -263 -167 -292 -333 -36 -211 92 -413 297 -466
147 -39 297 -1 398 101 65 64 65 64 -19 112 l-76 43 -31 -30 c-44 -43 -96 -62
-164 -62 -136 1 -225 94 -225 235 0 141 89 234 225 235 68 0 120 -19 164 -62
l32 -31 78 46 78 46 -65 64 c-48 47 -82 70 -125 87 -78 29 -200 36 -275 15z"/>
<path d="M670 2595 l0 -396 213 3 c205 3 214 4 269 30 117 55 197 164 221 301
29 169 -60 345 -212 420 l-65 32 -213 3 -213 3 0 -396z m432 192 c132 -77 132
-307 0 -384 -41 -24 -60 -28 -149 -31 l-103 -4 0 227 0 227 103 -4 c89 -3 108
-7 149 -31z"/>
<path d="M1490 2595 l0 -395 250 0 250 0 0 85 0 85 -155 0 -155 0 0 70 0 70
140 0 140 0 0 90 0 90 -140 0 -140 0 0 65 0 65 155 0 155 0 0 85 0 85 -250 0
-250 0 0 -395z"/>
<path d="M2043 2983 c2 -4 61 -182 131 -395 l127 -388 117 0 118 0 123 378
c68 207 126 385 128 395 5 15 -4 17 -94 17 l-100 0 -83 -277 c-45 -153 -86
-281 -89 -286 -4 -4 -46 120 -92 275 l-86 283 -102 3 c-56 1 -101 -1 -98 -5z"/>
<path d="M2870 2595 l0 -395 95 0 95 0 0 395 0 395 -95 0 -95 0 0 -395z"/>
<path d="M4030 2595 l0 -395 250 0 250 0 0 85 0 85 -160 0 -160 0 0 70 0 69
143 3 142 3 0 85 0 85 -142 3 -143 3 0 64 0 65 155 0 155 0 0 85 0 85 -245 0
-245 0 0 -395z"/>
</g>
</svg>
